<svg xmlns="http://www.w3.org/2000/svg" width="138" height="137" viewBox="0 0 138 137">
  <defs>
    <style>
      .cls-1 {
        fill: #3dd;
      }

      .cls-2, .cls-4 {
        fill: #fff;
      }

      .cls-3 {
        fill: #ff5a64;
      }

      .cls-4 {
        fill-rule: evenodd;
      }
    </style>
  </defs>
  <g id="Group_88" data-name="Group 88" transform="translate(-453 -3249)">
    <ellipse id="Ellipse_6" data-name="Ellipse 6" class="cls-1" cx="69" cy="68.5" rx="69" ry="68.5" transform="translate(453 3249)"/>
    <g id="Group_32" data-name="Group 32" transform="translate(471.986 2721.986)">
      <path id="Path_150" data-name="Path 150" class="cls-2" d="M34.205,618.17a1.265,1.265,0,1,1,0-2.531H47.491c-1.212-4.821-4.394-8.373-7.834-11.53.626-.57,1.263-1.124,1.91-1.689,4.718,4.348,8.979,9.441,8.979,17.506a1.265,1.265,0,0,1-2.531,0c0-.606-.026-1.191-.082-1.756Zm13.809-63.893a1.265,1.265,0,0,1,2.531,0c0,9.733-6.217,15.144-11.951,20.129a60.32,60.32,0,0,0-5.108,4.81h8.085a1.266,1.266,0,1,1,0,2.531H31.556a10.61,10.61,0,0,0-1.54,4.091H44.724a1.265,1.265,0,1,1,0,2.531H30.016c.606,4.374,4.271,7.655,8.265,11.145-.642.554-1.278,1.124-1.915,1.689-4.723-4.122-8.968-8.055-8.968-14.1v-.041c.015-6.278,4.6-10.272,9.538-14.559a49.419,49.419,0,0,0,7.3-7.315H36.551a1.268,1.268,0,1,1,0-2.536h9.328a17.1,17.1,0,0,0,2.136-8.378" transform="translate(9.855 0)"/>
      <path id="Path_151" data-name="Path 151" class="cls-3" d="M33.707,609.012H41.4a1.265,1.265,0,1,1,0,2.531H32.07a17.114,17.114,0,0,0-2.136,8.383,1.268,1.268,0,1,1-2.536,0c0-9.733,6.222-15.144,11.956-20.134a57.832,57.832,0,0,0,5.1-4.8H36.372a1.263,1.263,0,0,1,0-2.526H46.392a10.057,10.057,0,0,0,1.622-5.354c0-5.031-3.973-8.6-8.347-12.413.642-.565,1.283-1.124,1.915-1.694,4.723,4.117,8.968,8.044,8.968,14.107,0,6.294-4.595,10.288-9.543,14.6a48.862,48.862,0,0,0-7.3,7.305m-3.691-52.974H43.738a1.263,1.263,0,1,1,0,2.525H30.453c1.217,4.821,4.4,8.378,7.839,11.53-.626.565-1.263,1.119-1.915,1.689-4.713-4.348-8.979-9.446-8.979-17.5a1.268,1.268,0,1,1,2.536,0c0,.6.026,1.186.082,1.756" transform="translate(9.855 0)"/>
      <path id="Path_152" data-name="Path 152" class="cls-4" d="M68.65,595.245a6.6,6.6,0,0,0-2.7,2.172c-2.808-2.731-5.714-5.514-8.183-7.932a25.086,25.086,0,0,1-7.223.272,31.788,31.788,0,0,0,9.574-2.356Zm2.752.919c3.132.478,3.388,4.328.406,6.094-2.531,1.5-5.606.231-5.329-2.469a4.555,4.555,0,0,1,4.923-3.625M60.087,583.859a31.012,31.012,0,0,1-11.258,1.971c-17.182,0-26.751-11.838-16.263-19.846a21.643,21.643,0,0,1,6.412-3.245c-.4-.488-.76-.986-1.1-1.494a24.192,24.192,0,0,0-5.164,2.249m0,0c-4.728,2.8-7.7,6.807-7.7,11.263v2.248c0,8.445,10.657,15.293,23.815,15.293a36.1,36.1,0,0,0,7.588-.791c1.745,2.243,8.871,9.831,10.231,11.361,1.437,1.622,4.256,1.458,6.3-.365,2.048-1.807,2.536-4.584,1.1-6.207a115,115,0,0,0-8.933-8.137c4.631-2.793,7.526-6.761,7.526-11.155v-2.248c0-6.171-5.447-10.786-11.546-13.029-.447-.159-.893-.318-1.355-.462-.329.5-.693.991-1.073,1.463A21.488,21.488,0,0,1,65.118,566c7.834,6.006,4.41,14.153-5.031,17.855" transform="translate(0 34.024)"/>
    </g>
  </g>
</svg>
