<svg xmlns="http://www.w3.org/2000/svg" width="58" height="58" viewBox="0 0 58 58">
  <defs>
    <style>
      .cls-1 {
        opacity: 0.5;
      }

      .cls-2 {
        fill: #d1df79;
      }

      .cls-3 {
        fill: none;
        stroke: #446b6b;
        stroke-linecap: round;
        stroke-linejoin: round;
        stroke-width: 2px;
      }
    </style>
  </defs>
  <g id="Group_14" data-name="Group 14" class="cls-1" transform="translate(-1649 -31)">
    <g id="Group_10" data-name="Group 10" transform="translate(96)">
      <circle id="Ellipse_3" data-name="Ellipse 3" class="cls-2" cx="29" cy="29" r="29" transform="translate(1553 31)"/>
      <g id="Icon_feather-instagram" data-name="Icon feather-instagram" transform="translate(1569 47)">
        <path id="Path_143" data-name="Path 143" class="cls-3" d="M8.122,3H18.365a5.122,5.122,0,0,1,5.122,5.122V18.365a5.122,5.122,0,0,1-5.122,5.122H8.122A5.122,5.122,0,0,1,3,18.365V8.122A5.122,5.122,0,0,1,8.122,3Z"/>
        <path id="Path_144" data-name="Path 144" class="cls-3" d="M20.215,15.431a4.1,4.1,0,1,1-3.452-3.452A4.1,4.1,0,0,1,20.215,15.431Z" transform="translate(-2.874 -2.833)"/>
        <path id="Path_145" data-name="Path 145" class="cls-3" d="M26.25,9.75h0" transform="translate(-7.373 -2.14)"/>
      </g>
    </g>
  </g>
</svg>
