<svg xmlns="http://www.w3.org/2000/svg" width="138" height="137" viewBox="0 0 138 137">
  <defs>
    <style>
      .cls-1 {
        fill: #3dd;
      }

      .cls-2 {
        fill: #ff5a64;
      }

      .cls-3 {
        fill: #fff;
      }
    </style>
  </defs>
  <g id="Group_89" data-name="Group 89" transform="translate(-762 -3249)">
    <ellipse id="Ellipse_9" data-name="Ellipse 9" class="cls-1" cx="69" cy="68.5" rx="69" ry="68.5" transform="translate(762 3249)"/>
    <g id="Group_33" data-name="Group 33" transform="translate(754.087 2697.711)">
      <path id="Path_153" data-name="Path 153" class="cls-2" d="M76.322,591.276a1.6,1.6,0,0,0-2.537-1.1l-4.4,3.229a1.6,1.6,0,0,0,1.274,2.853,13.612,13.612,0,0,1-8.413,5.706,1.6,1.6,0,0,0,.331,3.163,1.925,1.925,0,0,0,.336-.035,16.846,16.846,0,0,0,10.905-7.842,1.6,1.6,0,0,0,1.559,1.258,1.256,1.256,0,0,0,.19-.015,1.6,1.6,0,0,0,1.4-1.775Zm0,0" transform="translate(20.339 42.243)"/>
      <path id="Path_154" data-name="Path 154" class="cls-2" d="M75.837,589.449a1.6,1.6,0,0,0-1.75,1.243,16.807,16.807,0,0,0-10.905-7.836,1.6,1.6,0,0,0-.667,3.128,13.591,13.591,0,0,1,8.413,5.7,1.6,1.6,0,0,0-1.274,2.853l4.4,3.234a1.605,1.605,0,0,0,.943.306,1.559,1.559,0,0,0,.637-.13,1.594,1.594,0,0,0,.953-1.279l.647-5.44a1.6,1.6,0,0,0-1.4-1.78Zm0,0" transform="translate(21.425 13.951)"/>
      <path id="Path_155" data-name="Path 155" class="cls-3" d="M57.512,595.813a1.608,1.608,0,0,1-.311-.035,1.472,1.472,0,0,1-.3-.091,1.794,1.794,0,0,1-.276-.145,1.355,1.355,0,0,1-.241-.2,1.59,1.59,0,0,1-.471-1.128,1.611,1.611,0,0,1,.471-1.133,1.14,1.14,0,0,1,.241-.2,1.459,1.459,0,0,1,.276-.151,1.5,1.5,0,0,1,.3-.09,1.612,1.612,0,0,1,1.444.436,1.628,1.628,0,0,1,.466,1.133,1.6,1.6,0,0,1-1.6,1.6Zm0,0" transform="translate(0 53.264)"/>
      <path id="Path_156" data-name="Path 156" class="cls-3" d="M92.028,620.3a1.6,1.6,0,0,0-1.6-1.6h-.07c-.11-.16-.231-.331-.361-.506-.456-.627-1.1-1.439-1.91-2.467-4.863-6.172-16.26-20.622-16.26-32.289a4.106,4.106,0,0,0-3.033-3.951,4.216,4.216,0,0,0-1.093-.146H57.512a1.6,1.6,0,0,0,0,3.2H67.7a.848.848,0,0,1,.256.035.924.924,0,0,1,.672.862c0,12.775,11.447,27.3,16.947,34.269.852,1.078,1.725,2.186,2.106,2.743a21.374,21.374,0,0,1-5.134,11.341,11.722,11.722,0,0,1-8.293,4.111,20.189,20.189,0,0,1-4.312-.481l-.13-.025a5.391,5.391,0,0,1-4.422-6.187,1.6,1.6,0,0,0-3.159-.506A8.605,8.605,0,0,0,68,638.237v19.795h-8.89v-3.039a1.6,1.6,0,1,0-3.2,0v4.638a1.6,1.6,0,0,0,1.6,1.6H69.6a1.6,1.6,0,0,0,1.6-1.6V638.894a22.516,22.516,0,0,0,3.058.21c3.79,0,7.566-1.825,10.639-5.134a23.97,23.97,0,0,0,5.791-12.088,1.6,1.6,0,0,0,1.344-1.579Zm0,0" transform="translate(0 0)"/>
    </g>
  </g>
</svg>
