<svg xmlns="http://www.w3.org/2000/svg" xmlns:xlink="http://www.w3.org/1999/xlink" width="278" height="198" viewBox="0 0 278 198">
  <defs>
    <style>
      .cls-1 {
        fill: #2fe0e0;
      }

      .cls-2 {
        fill: #a0e583;
      }

      .cls-3, .cls-4 {
        fill: #fff;
      }

      .cls-3 {
        font-size: 20px;
        font-family: Gilroy-Light, Gilroy;
        font-weight: 300;
      }

      .cls-5 {
        filter: url(#Rectangle_170);
      }
    </style>
    <filter id="Rectangle_170" x="0" y="0" width="278" height="198" filterUnits="userSpaceOnUse">
      <feOffset dy="3" input="SourceAlpha"/>
      <feGaussianBlur stdDeviation="3" result="blur"/>
      <feFlood flood-opacity="0.078"/>
      <feComposite operator="in" in2="blur"/>
      <feComposite in="SourceGraphic"/>
    </filter>
  </defs>
  <g id="Group_92" data-name="Group 92" transform="translate(-638 -1016)">
    <g class="cls-5" transform="matrix(1, 0, 0, 1, 638, 1016)">
      <rect id="Rectangle_170-2" data-name="Rectangle 170" class="cls-1" width="260" height="180" rx="5" transform="translate(9 6)"/>
    </g>
    <path id="Rectangle_174" data-name="Rectangle 174" class="cls-2" d="M5,0H255a5,5,0,0,1,5,5V8a0,0,0,0,1,0,0H0A0,0,0,0,1,0,8V5A5,5,0,0,1,5,0Z" transform="translate(647 1022)"/>
    <text id="Reliable_expertise" data-name="Reliable expertise" class="cls-3" transform="translate(713 1126)"><tspan x="22.06" y="18">RELIABLE </tspan><tspan x="16.67" y="41">EXPERTISE</tspan></text>
    <g id="Group_23" data-name="Group 23" transform="translate(746 1043)">
      <path id="Path_34" data-name="Path 34" class="cls-4" d="M-389.043-106.255l-6.923-8.9a11.513,11.513,0,0,0,5.388-4.342l.021-.034c1.89-3.266,1.065-7.107.268-10.821l-.005-.023a27.69,27.69,0,0,1-.812-5.473,27.682,27.682,0,0,1,.812-5.478l.015-.067c.789-3.7,1.6-7.525-.277-10.772-1.954-3.376-5.751-4.579-9.423-5.743l-.024-.007a25.738,25.738,0,0,1-4.958-1.938,24.382,24.382,0,0,1-3.963-3.217l-.018-.017c-2.724-2.528-5.81-5.393-9.877-5.393s-7.153,2.865-9.878,5.392l-.019.018a24.381,24.381,0,0,1-3.962,3.218,25.737,25.737,0,0,1-4.956,1.933l-.024.007c-3.672,1.164-7.469,2.367-9.423,5.743-1.89,3.267-1.065,7.107-.268,10.821l.005.023a27.687,27.687,0,0,1,.811,5.478,27.677,27.677,0,0,1-.812,5.478l-.015.067c-.789,3.7-1.6,7.525.277,10.772l.021.034a11.513,11.513,0,0,0,5.394,4.341l-6.929,8.9a1.886,1.886,0,0,0,.331,2.643,1.869,1.869,0,0,0,1.39.382l8.239-1.029,2.017,7.058a1.876,1.876,0,0,0,1.455,1.332,1.91,1.91,0,0,0,.355.034h0a1.871,1.871,0,0,0,1.487-.727l7.42-9.544a12.043,12.043,0,0,0,7.038,2.89l.044,0,.044,0a12.042,12.042,0,0,0,7.038-2.89l7.418,9.538a1.9,1.9,0,0,0,1.489.733,1.926,1.926,0,0,0,.358-.034A1.875,1.875,0,0,0-401.02-97.2l2.017-7.057,8.238,1.029a1.886,1.886,0,0,0,2.1-1.635A1.873,1.873,0,0,0-389.043-106.255Zm-19.88-2.371a24.369,24.369,0,0,1,3.961-3.218,25.735,25.735,0,0,1,4.956-1.933l.271-.086,4.925,6.33-5.321-.665a1.874,1.874,0,0,0-2.044,1.35l-1.446,5.044-5.3-6.819Zm-28.978-5.237.245.078.026.008a25.72,25.72,0,0,1,4.952,1.933,24.38,24.38,0,0,1,3.963,3.216l0,0-5.3,6.82-1.441-5.042a1.873,1.873,0,0,0-1.8-1.365,1.934,1.934,0,0,0-.239.015l-5.322.665Zm-5.923-7.554c-1.16-2.006-.523-4.982.153-8.134a30.84,30.84,0,0,0,.9-6.272v-.052a30.806,30.806,0,0,0-.9-6.272c-.676-3.151-1.313-6.127-.154-8.133,1.225-2.11,4.171-3.047,7.291-4.037a29.226,29.226,0,0,0,5.716-2.261l.049-.029a27.817,27.817,0,0,0,4.637-3.729c2.431-2.253,4.728-4.378,7.31-4.378s4.879,2.125,7.309,4.378a27.816,27.816,0,0,0,4.638,3.729l.05.029a29.223,29.223,0,0,0,5.716,2.261c3.123.991,6.071,1.929,7.291,4.036,1.16,2.006.523,4.982-.153,8.134a30.82,30.82,0,0,0-.9,6.272v.052a30.817,30.817,0,0,0,.9,6.272c.677,3.151,1.313,6.126.154,8.133-1.225,2.11-4.171,3.047-7.291,4.037a29.224,29.224,0,0,0-5.715,2.261l-.05.029a27.8,27.8,0,0,0-4.637,3.729c-2.431,2.253-4.728,4.378-7.31,4.378s-4.879-2.125-7.309-4.378a27.832,27.832,0,0,0-4.638-3.729l-.05-.029a29.236,29.236,0,0,0-5.717-2.261C-439.656-118.372-442.6-119.309-443.824-121.417Z" transform="translate(448.993 168.482)"/>
      <path id="Path_35" data-name="Path 35" class="cls-4" d="M-346.422-69.708A22.856,22.856,0,0,0-369.214-92.5h0a22.819,22.819,0,0,0-22.793,22.793,22.819,22.819,0,0,0,22.793,22.793A22.819,22.819,0,0,0-346.422-69.708Zm-22.793,19.027A19.047,19.047,0,0,1-388.24-69.707a19.047,19.047,0,0,1,19.026-19.026,19.047,19.047,0,0,1,19.026,19.025A19.08,19.08,0,0,1-369.215-50.681Z" transform="translate(399.388 102.34)"/>
      <path id="Path_36" data-name="Path 36" class="cls-4" d="M-304.251-27.3a3.124,3.124,0,0,0-2.516-1.281h-7.056l-2.191-6.718a3.117,3.117,0,0,0-3.93-1.986A3.126,3.126,0,0,0-321.93-35.3l-2.184,6.715h-7.063a3.117,3.117,0,0,0-3.114,3.112,3.123,3.123,0,0,0,1.282,2.519L-327.3-18.8l-2.182,6.715a3.117,3.117,0,0,0,2,3.924,3.122,3.122,0,0,0,2.793-.442l5.715-4.148,5.707,4.145a3.08,3.08,0,0,0,1.84.613,3.049,3.049,0,0,0,1.822-.6,3.058,3.058,0,0,0,1.136-3.485l-2.182-6.716,5.712-4.149A3.117,3.117,0,0,0-304.251-27.3Zm-12.737,1.183a1.879,1.879,0,0,0,1.791,1.3h6.417l-5.191,3.771a1.878,1.878,0,0,0-.684,2.107l1.983,6.1-5.193-3.772a1.879,1.879,0,0,0-2.213,0l-5.193,3.772,1.982-6.1a1.879,1.879,0,0,0-.684-2.106l-5.191-3.772h6.417a1.879,1.879,0,0,0,1.791-1.3l1.983-6.1Z" transform="translate(349.144 54.409)"/>
    </g>
  </g>
</svg>
