<svg xmlns="http://www.w3.org/2000/svg" width="58" height="58" viewBox="0 0 58 58">
  <defs>
    <style>
      .cls-1 {
        opacity: 0.5;
      }

      .cls-2 {
        fill: #d1df79;
      }

      .cls-3 {
        fill: #4a5e5e;
      }
    </style>
  </defs>
  <g id="Group_15" data-name="Group 15" class="cls-1" transform="translate(-1576 -31)">
    <g id="Group_11" data-name="Group 11" transform="translate(108)">
      <circle id="Ellipse_2" data-name="Ellipse 2" class="cls-2" cx="29" cy="29" r="29" transform="translate(1468 31)"/>
      <path id="Icon_awesome-twitter" data-name="Icon awesome-twitter" class="cls-3" d="M17.944,7.429c.013.178.013.355.013.533A11.583,11.583,0,0,1,6.294,19.624,11.583,11.583,0,0,1,0,17.784a8.48,8.48,0,0,0,.99.051,8.209,8.209,0,0,0,5.089-1.751,4.106,4.106,0,0,1-3.833-2.843,5.169,5.169,0,0,0,.774.063,4.335,4.335,0,0,0,1.079-.14A4.1,4.1,0,0,1,.812,9.142V9.091a4.128,4.128,0,0,0,1.853.52A4.105,4.105,0,0,1,1.4,4.129,11.651,11.651,0,0,0,9.848,8.419a4.627,4.627,0,0,1-.1-.939,4.1,4.1,0,0,1,7.094-2.8,8.07,8.07,0,0,0,2.6-.99,4.088,4.088,0,0,1-1.8,2.259A8.217,8.217,0,0,0,20,5.31a8.811,8.811,0,0,1-2.056,2.119Z" transform="translate(1487 48.619)"/>
    </g>
  </g>
</svg>
